<?xml version="1.0" encoding="utf-8"?>
<!-- Generator: Adobe Illustrator 18.0.0, SVG Export Plug-In . SVG Version: 6.00 Build 0)  -->
<!DOCTYPE svg PUBLIC "-//W3C//DTD SVG 1.1//EN" "http://www.w3.org/Graphics/SVG/1.1/DTD/svg11.dtd">
<svg version="1.1" id="Capa_36" xmlns="http://www.w3.org/2000/svg" xmlns:xlink="http://www.w3.org/1999/xlink" x="0px" y="0px"
	 viewBox="0 0 100 100" enable-background="new 0 0 100 100" xml:space="preserve">
<g>
	<path d="M78,42.2v-3.8h-7.2v3.8H69v29.3h16.8V42.2H78z M72.4,66h-1.9v-4.4h1.9V66z M72.4,60h-1.9v-4.4h1.9V60z M72.4,54.1h-1.9
		v-4.4h1.9V54.1z M72.4,48.1h-1.9v-4.4h1.9V48.1z M75.3,66h-1.9v-4.4h1.9V66z M75.3,60h-1.9v-4.4h1.9V60z M75.3,54.1h-1.9v-4.4h1.9
		V54.1z M75.3,48.1h-1.9v-4.4h1.9V48.1z M78.3,66h-1.9v-4.4h1.9V66z M78.3,60h-1.9v-4.4h1.9V60z M78.3,54.1h-1.9v-4.4h1.9V54.1z
		 M78.3,48.1h-1.9v-4.4h1.9V48.1z M81.2,66h-1.9v-4.4h1.9V66z M81.2,60h-1.9v-4.4h1.9V60z M81.2,54.1h-1.9v-4.4h1.9V54.1z
		 M81.2,48.1h-1.9v-4.4h1.9V48.1z M84.2,66h-1.9v-4.4h1.9V66z M84.2,60h-1.9v-4.4h1.9V60z M84.2,54.1h-1.9v-4.4h1.9V54.1z
		 M84.2,48.1h-1.9v-4.4h1.9V48.1z"/>
	<polygon points="65.5,65.4 65.5,58.3 63.7,58.3 63.7,19.6 62.4,19.6 62.4,15.4 60.7,15.4 60.7,12.8 59.4,12.8 58.4,5.3 58.4,5.3 
		58.4,4.6 57.7,4.6 57.6,-2.6 57.4,-2.6 57.3,4.6 56.6,4.6 56.6,5.3 55.6,12.8 54.2,12.8 54.2,15.4 52.6,15.4 52.6,19.6 51.2,19.6 
		51.2,58.3 49.4,58.3 49.4,65.4 48.1,65.4 48.1,71.5 66.8,71.5 66.8,65.4 	"/>
	<path d="M34.1,23.9v47.6H46V23.9H34.1z M37,64.8h-1.6v-3.6H37V64.8z M37,59.7h-1.6v-3.6H37V59.7z M37,54.5h-1.6v-3.6H37V54.5z
		 M37,49.3h-1.6v-3.6H37V49.3z M37,44.2h-1.6v-3.6H37V44.2z M37,39h-1.6v-3.6H37V39z M37,33.9h-1.6v-3.6H37V33.9z M37,28.7h-1.6
		v-3.6H37V28.7z M39.6,64.8h-1.6v-3.6h1.6V64.8z M39.6,59.7h-1.6v-3.6h1.6V59.7z M39.6,54.5h-1.6v-3.6h1.6V54.5z M39.6,49.3h-1.6
		v-3.6h1.6V49.3z M39.6,44.2h-1.6v-3.6h1.6V44.2z M39.6,39h-1.6v-3.6h1.6V39z M39.6,33.9h-1.6v-3.6h1.6V33.9z M39.6,28.7h-1.6v-3.6
		h1.6V28.7z M42.1,64.8h-1.6v-3.6h1.6V64.8z M42.1,59.7h-1.6v-3.6h1.6V59.7z M42.1,54.5h-1.6v-3.6h1.6V54.5z M42.1,49.3h-1.6v-3.6
		h1.6V49.3z M42.1,44.2h-1.6v-3.6h1.6V44.2z M42.1,39h-1.6v-3.6h1.6V39z M42.1,33.9h-1.6v-3.6h1.6V33.9z M42.1,28.7h-1.6v-3.6h1.6
		V28.7z M44.7,64.8h-1.6v-3.6h1.6V64.8z M44.7,59.7h-1.6v-3.6h1.6V59.7z M44.7,54.5h-1.6v-3.6h1.6V54.5z M44.7,49.3h-1.6v-3.6h1.6
		V49.3z M44.7,44.2h-1.6v-3.6h1.6V44.2z M44.7,39h-1.6v-3.6h1.6V39z M44.7,33.9h-1.6v-3.6h1.6V33.9z M44.7,28.7h-1.6v-3.6h1.6V28.7z
		"/>
	<polygon points="29.9,35.4 29.9,27.8 23.3,27.8 23.3,25 18.7,25 18.7,27.8 16.9,27.8 16.9,71.5 17,71.5 29.9,71.5 31.9,71.5 
		31.9,35.4 	"/>
</g>
</svg>
