<?xml version="1.0" encoding="utf-8"?>
<!-- Generator: Adobe Illustrator 18.1.1, SVG Export Plug-In . SVG Version: 6.00 Build 0)  -->
<svg version="1.1" id="Layer_1" xmlns="http://www.w3.org/2000/svg" xmlns:xlink="http://www.w3.org/1999/xlink" x="0px" y="0px"
	 viewBox="0 0 427 459" enable-background="new 0 0 427 459" xml:space="preserve">
<g>
	<path fill="#010101" d="M378.9,277.6v-23.5h-44.5v23.5h-11.1v181h103.8v-181H378.9z M344.3,424.6h-11.7v-27.2h11.7V424.6z
		 M344.3,387.6h-11.7v-27.2h11.7V387.6z M344.3,351.1h-11.7v-27.2h11.7V351.1z M344.3,314.1h-11.7v-27.2h11.7V314.1z M362.2,424.6
		h-11.7v-27.2h11.7V424.6z M362.2,387.6h-11.7v-27.2h11.7V387.6z M362.2,351.1h-11.7v-27.2h11.7V351.1z M362.2,314.1h-11.7v-27.2
		h11.7V314.1z M380.8,424.6H369v-27.2h11.7V424.6z M380.8,387.6H369v-27.2h11.7V387.6z M380.8,351.1H369v-27.2h11.7V351.1z
		 M380.8,314.1H369v-27.2h11.7V314.1z M398.7,424.6H387v-27.2h11.7V424.6z M398.7,387.6H387v-27.2h11.7V387.6z M398.7,351.1H387
		v-27.2h11.7V351.1z M398.7,314.1H387v-27.2h11.7V314.1z M417.2,424.6h-11.7v-27.2h11.7V424.6z M417.2,387.6h-11.7v-27.2h11.7V387.6
		z M417.2,351.1h-11.7v-27.2h11.7V351.1z M417.2,314.1h-11.7v-27.2h11.7V314.1z"/>
	<polygon fill="#010101" points="301.7,420.9 301.7,377.1 290.6,377.1 290.6,138 282.6,138 282.6,112.1 272.1,112.1 272.1,96 
		264,96 257.9,49.7 257.9,49.7 257.9,45.4 253.5,45.4 252.9,0.9 251.7,0.9 251.1,45.4 246.8,45.4 246.8,49.7 240.6,96 231.9,96 
		231.9,112.1 222,112.1 222,138 213.4,138 213.4,377.1 202.3,377.1 202.3,420.9 194.3,420.9 194.3,458.6 309.7,458.6 309.7,420.9 	
		"/>
	<path fill="#010101" d="M107.8,164.6v294h73.5v-294H107.8z M125.7,417.2h-9.9V395h9.9V417.2z M125.7,385.7h-9.9v-22.2h9.9V385.7z
		 M125.7,353.6h-9.9v-22.2h9.9V353.6z M125.7,321.5h-9.9v-22.2h9.9V321.5z M125.7,290h-9.9v-22.2h9.9V290z M125.7,257.9h-9.9v-22.2
		h9.9V257.9z M125.7,226.4h-9.9v-22.2h9.9V226.4z M125.7,194.2h-9.9V172h9.9V194.2z M141.8,417.2h-9.9V395h9.9V417.2z M141.8,385.7
		h-9.9v-22.2h9.9V385.7z M141.8,353.6h-9.9v-22.2h9.9V353.6z M141.8,321.5h-9.9v-22.2h9.9V321.5z M141.8,290h-9.9v-22.2h9.9V290z
		 M141.8,257.9h-9.9v-22.2h9.9V257.9z M141.8,226.4h-9.9v-22.2h9.9V226.4z M141.8,194.2h-9.9V172h9.9V194.2z M157.2,417.2h-9.9V395
		h9.9V417.2z M157.2,385.7h-9.9v-22.2h9.9V385.7z M157.2,353.6h-9.9v-22.2h9.9V353.6z M157.2,321.5h-9.9v-22.2h9.9V321.5z
		 M157.2,290h-9.9v-22.2h9.9V290z M157.2,257.9h-9.9v-22.2h9.9V257.9z M157.2,226.4h-9.9v-22.2h9.9V226.4z M157.2,194.2h-9.9V172
		h9.9V194.2z M173.3,417.2h-9.9V395h9.9V417.2z M173.3,385.7h-9.9v-22.2h9.9V385.7z M173.3,353.6h-9.9v-22.2h9.9V353.6z
		 M173.3,321.5h-9.9v-22.2h9.9V321.5z M173.3,290h-9.9v-22.2h9.9V290z M173.3,257.9h-9.9v-22.2h9.9V257.9z M173.3,226.4h-9.9v-22.2
		h9.9V226.4z M173.3,194.2h-9.9V172h9.9V194.2z"/>
	<polygon fill="#010101" points="81.8,235.6 81.8,188.7 41.1,188.7 41.1,171.4 12.7,171.4 12.7,188.7 1.6,188.7 1.6,458.6 
		2.2,458.6 81.8,458.6 94.2,458.6 94.2,235.6 	"/>
</g>
</svg>
