<?xml version="1.0" encoding="utf-8"?>
<!-- Generator: Adobe Illustrator 18.0.0, SVG Export Plug-In . SVG Version: 6.00 Build 0)  -->
<!DOCTYPE svg PUBLIC "-//W3C//DTD SVG 1.1//EN" "http://www.w3.org/Graphics/SVG/1.1/DTD/svg11.dtd">
<svg version="1.1" id="Layer_1" xmlns="http://www.w3.org/2000/svg" xmlns:xlink="http://www.w3.org/1999/xlink" x="0px" y="0px"
	 viewBox="0 0 100 100" enable-background="new 0 0 100 100" xml:space="preserve">
<path d="M78.2,11.3"/>
<g>
	<path d="M59,20.5c0.4,0,0.7-0.3,0.7-0.7V2.6c0-0.4-0.3-0.7-0.7-0.7H28.6c-0.4,0-0.7,0.3-0.7,0.7v6.8c0,0.4,0.3,0.8,0.7,0.8
		c0,0,1,0,2.1,0.6C33,12.1,33,15,33,15c0,0.4,0,1.1,0,1.5v3.3c0,0.4,0.3,0.7,0.7,0.7C33.7,20.5,59,20.5,59,20.5z"/>
</g>
<path d="M31.5,4.9"/>
<path d="M31.8,37V16c0,0,0.2-3.1-2-4.1c-2.2-1-3.4-0.4-3.6-0.3c-0.2,0.1-1.5,0.7-2,1.9c-0.5,1.2-0.3,1.4-0.3,2.2
	c0.1,0.8,0.6,1.6,0.7,1.7c0.1,0.1,1.4,2,1.7,2.3c0.3,0.3,1.2,2.2,1.2,2.5c0,0.3,0,14.8,0,14.8s0.1,0.6,2,0.6
	C31.5,37.6,31.8,37,31.8,37z"/>
<g>
	<path d="M59.8,22.3c0-0.4-0.3-0.7-0.7-0.7H33.7c-0.4,0-0.7,0.3-0.7,0.7v3.8c0,0.4,0.3,0.7,0.7,0.7H59c0.4,0,0.7-0.3,0.7-0.7
		L59.8,22.3L59.8,22.3z"/>
</g>
<path d="M32.9,29"/>
<g>
	<path d="M32.9,28.8c0-0.4,0.3-0.7,0.7-0.7h53.2c0.4,0,0.7,0.3,0.7,0.7v5.8c0,0.4-0.3,0.7-0.7,0.7H33.7c-0.4,0-0.7-0.3-0.7-0.7
		L32.9,28.8z"/>
</g>
<g>
	<path d="M61.5,20.5c-0.4,0-0.7-0.3-0.7-0.7V2.6c0-0.4,0.3-0.7,0.7-0.7H92c0.4,0,0.7,0.3,0.7,0.7v6.8c0,0.4-0.3,0.8-0.7,0.8
		c0,0-1,0-2.1,0.6c-2.4,1.3-2.3,4.2-2.3,4.2c0,0.4,0,1.1,0,1.5v3.3c0,0.4-0.3,0.7-0.7,0.7C86.9,20.5,61.5,20.5,61.5,20.5z"/>
</g>
<path d="M88.7,37V16c0,0-0.2-3.1,2-4.1c2.2-1,3.4-0.4,3.6-0.3c0.2,0.1,1.5,0.7,2,1.9c0.5,1.2,0.3,1.4,0.3,2.2
	c-0.1,0.8-0.6,1.6-0.7,1.7c-0.1,0.1-1.4,2-1.7,2.3C93.9,20,93,21.9,93,22.2c0,0.3,0,14.8,0,14.8s-0.1,0.6-2,0.6S88.7,37,88.7,37z"/>
<g>
	<path d="M60.8,22.3c0-0.4,0.3-0.7,0.7-0.7h25.3c0.4,0,0.7,0.3,0.7,0.7v3.8c0,0.4-0.3,0.7-0.7,0.7H61.5c-0.4,0-0.7-0.3-0.7-0.7
		L60.8,22.3L60.8,22.3z"/>
</g>
</svg>
