<?xml version="1.0" encoding="utf-8"?>
<!-- Generator: Adobe Illustrator 18.1.1, SVG Export Plug-In . SVG Version: 6.00 Build 0)  -->
<svg version="1.1" id="Layer_1" xmlns="http://www.w3.org/2000/svg" xmlns:xlink="http://www.w3.org/1999/xlink" x="0px" y="0px"
	 viewBox="0 0 445 218" enable-background="new 0 0 445 218" xml:space="preserve">
<path fill="#010101" d="M331.9,57.9"/>
<g>
	<path fill="#010101" d="M215.4,114c2.4,0,4.2-1.8,4.2-4.3V4.9c0-2.4-1.8-4.3-4.2-4.3H30.9c-2.4,0-4.2,1.8-4.2,4.3v41.4
		c0,2.4,1.8,4.9,4.2,4.9c0,0,6.1,0,12.7,3.7c14,7.9,14,25.6,14,25.6c0,2.4,0,6.7,0,9.1v20.1c0,2.4,1.8,4.3,4.2,4.3H215.4z"/>
</g>
<path fill="#010101" d="M48.5,18.9"/>
<path fill="#010101" d="M50.3,214.5V86.6c0,0,1.2-18.9-12.1-25s-20.6-2.4-21.8-1.8C15.1,60.4,7.2,64,4.2,71.3
	c-3,7.3-1.8,8.5-1.8,13.4C3,89.6,6,94.5,6.6,95.1s8.5,12.2,10.3,14c1.8,1.8,7.3,13.4,7.3,15.2c0,1.8,0,90.1,0,90.1s0.6,3.7,12.1,3.7
	C48.5,218.1,50.3,214.5,50.3,214.5z"/>
<g>
	<path fill="#010101" d="M220.2,124.9c0-2.4-1.8-4.3-4.2-4.3H61.9c-2.4,0-4.2,1.8-4.2,4.3v23.1c0,2.4,1.8,4.3,4.2,4.3h153.5
		c2.4,0,4.2-1.8,4.2-4.3L220.2,124.9L220.2,124.9z"/>
</g>
<path fill="#010101" d="M57,165.7"/>
<g>
	<path fill="#010101" d="M57,164.5c0-2.4,1.8-4.3,4.2-4.3h322.8c2.4,0,4.2,1.8,4.2,4.3v35.3c0,2.4-1.8,4.3-4.2,4.3H61.9
		c-2.4,0-4.2-1.8-4.2-4.3L57,164.5z"/>
</g>
<g>
	<path fill="#010101" d="M230.5,114c-2.4,0-4.2-1.8-4.2-4.3V4.9c0-2.4,1.8-4.3,4.2-4.3h185.1c2.4,0,4.2,1.8,4.2,4.3v41.4
		c0,2.4-1.8,4.9-4.2,4.9c0,0-6.1,0-12.7,3.7c-14.6,7.9-14,25.6-14,25.6c0,2.4,0,6.7,0,9.1v20.1c0,2.4-1.8,4.3-4.2,4.3H230.5z"/>
</g>
<path fill="#010101" d="M395.6,214.5V86.6c0,0-1.2-18.9,12.1-25s20.6-2.4,21.8-1.8c1.2,0.6,9.1,4.3,12.1,11.6
	c3,7.3,1.8,8.5,1.8,13.4c-0.6,4.9-3.6,9.7-4.2,10.4c-0.6,0.6-8.5,12.2-10.3,14c-1.8,1.8-7.3,13.4-7.3,15.2c0,1.8,0,90.1,0,90.1
	s-0.6,3.7-12.1,3.7S395.6,214.5,395.6,214.5z"/>
<g>
	<path fill="#010101" d="M226.3,124.9c0-2.4,1.8-4.3,4.2-4.3h153.5c2.4,0,4.2,1.8,4.2,4.3v23.1c0,2.4-1.8,4.3-4.2,4.3H230.5
		c-2.4,0-4.2-1.8-4.2-4.3V124.9L226.3,124.9z"/>
</g>
</svg>
