<?xml version="1.0" encoding="utf-8"?>
<!-- Generator: Adobe Illustrator 18.1.1, SVG Export Plug-In . SVG Version: 6.00 Build 0)  -->
<svg version="1.1" id="Layer_1" xmlns="http://www.w3.org/2000/svg" xmlns:xlink="http://www.w3.org/1999/xlink" x="0px" y="0px"
	 viewBox="0 0 200 368" enable-background="new 0 0 200 368" xml:space="preserve">
<g id="Your_Icon">
	<path fill="#010101" d="M129.2,332.3c-9.7-2-19.4-4.1-28.9,0.7c-2.2,1.1-4.2,2.7-6.4,4.1c-0.7,0.4-1.3,1.2-2,1.2
		c-4.5,0-4,3.5-4.1,6.1c-0.2,3.2-0.9,6.4-1.2,9.6c-0.5,4.9-4.4,7.7-7.6,10.9c-2.9,3-6.4,3.6-10.2,2c-1.4-0.6-2.8,0.3-4.1,0
		c-4.5-0.8-8.8-1.9-11.3-6.3c-1.1-1.8-1.1-3.8-0.4-5.6c1.4-3.8,3.2-7.3,7.1-9.4c5.4-2.9,8.2-7.7,9.9-13.5c1.9-6.6,0.7-13-0.1-19.5
		c-0.2-1.9-1.4-3-3.4-2.7c-3.4,0.6-6-1.6-8.9-2.5c-0.7-0.2-1-0.9-1.3-1.6c-1.6-4.3-0.5-6.9,3-9.9c3-2.6,5.9-4.5,10-3.9
		c0.9,0.1,1.3-0.4,1.4-1.2c0.1-0.8,0.4-1.5,0.4-2.3c0.1-11,0.5-22-1-32.9c-0.2-1.8-1.4-2.7-2.7-3.7c-4.8-3.6-9.4-7.4-13.1-12.2
		c-0.6-0.8-1.3-1.7-2.3-2.1c-0.2,0.1-0.4,0.2-0.4,0.3c-0.1,7.7-1.5,15.3-0.8,23c0.3,3.2-0.6,6.4-0.8,9.6c-0.3,5.1,0.1,10.1,0.6,15.2
		c0.6,5.7,0.3,11.3-1.6,16.8c-1.6,4.5-2,9.4-3.2,14c-0.8,3.1-1.9,6-3,8.9c-2.1,5.3-7.1,6.3-11.7,7.7c-3.1,1-6.4,1.4-9.6,2.5
		c-2.1,0.8-4.5,0.7-6.6-0.4c-0.2-0.1-0.5-0.4-0.7-0.4c-3.4,0.6-4.4-1.9-5.8-4.2c-1.3-2.2-1.4-4.2,0.3-6c3.9-4.2,8.2-7.7,14.2-8.7
		c3.4-0.6,4.5-3.8,5.9-6.5c2.5-5,2.2-10.3,1.1-15.6c-1-4.7-1.3-9.5-1-14.3c0.7-13.4-0.8-26.5-3.7-39.6c-1.4-6.4-2.2-13-3.3-19.6
		c-0.9-5.8-1-11.5-0.5-17.2c0.4-4.8-1-9.2-1.2-13.8c-0.1-1.2-0.3-2.5,0-3.7c1.1-4.3,0.7-8.7,0.5-13c-0.4-6.6,2-12.1,5.4-17.4
		c1.1-1.7,2.2-3.3,3.5-4.9c2.7-3.1,1.8-6.9,1.3-10.3c-0.6-4.5-0.9-8.9-0.6-13.3c0.2-2.5-0.9-3.1-3.4-3.3c-5.5-0.5-11.2-0.8-16.1-4
		c-1.6-1.1-3.6-0.6-5.3-1.9c-4.1-3.3-5-7.8-5.4-12.5c-0.3-3.2,0.1-6.3,0.8-9.3c0.3-1.3,0.2-2.6-0.2-3.9c-1.3-4.9,0.4-8.9,4.8-11.6
		c4.3-2.6,5.9-8.8,3.2-13.2c-2.6-4.2-2-15.2,2.5-18.2c3.7-2.4,4.6-5.5,3.1-10.1c-3-9.7-3.7-19.8-3.4-30c0.1-2.6,0.9-5,2-7.2
		c0.8-1.5,1.8-1.7,3.1-0.5s2,2.7,2.4,4.3c1.2,3.9,3.1,7.6,4.3,11.5c0.6,2,2,3.9,3.3,5.6c2.6,3.5,4.3,7.3,5.9,11.3
		c0.6,1.5,1.5,2.5,3.1,2.2c4.7-0.9,9.4-0.5,14.1-0.5c2.5,0,4-0.9,4.3-3.5c0.8-7.4,3.5-14.1,6-21c1-2.8,1.6-5.9,2.5-8.8
		C62,0.7,62.7-0.9,64.9-1c2.3-0.1,3.1,1.5,3.8,3.3c3.5,10.3,5.4,20.9,7.1,31.5c0.7,4.7,1.1,9.3,0,14c-0.6,2.5-2,4.6-3.1,6.9
		c-1.8,3.8-2.6,7.9-3.5,12c-0.2,1,0.3,1.8,0.6,2.7c3.3,8.2,5.5,16.8,6.5,25.4c0.9,7.6,2.9,14.8,5.8,21.8c2.1,5.1,5.6,9.1,10.1,12.4
		c7.3,5.4,12.4,12.3,15.2,21c1.1,3.3,2.9,6.2,4.5,9.1c5.5,9.7,10.8,19.5,14.8,30c2.7,7.3,5.1,14.7,7,22.2c2.6,10.4,7,19.9,12.7,28.8
		c4.1,6.4,8.9,12.3,12.6,18.9c0.6,1,1.4,1.7,2.4,2.3c8.6,4.2,12.6,11.4,12.9,20.8c0,1.4,0.5,2.3,1.6,3.1c4.2,3.3,9.2,5.4,13.4,8.5
		c2.8,2,5.1,4.5,7.2,7.2c4.8,6.2,3.1,12.6-0.5,18.5c-1.6,2.6-3.4,5.6-7.1,6.1c-6.3,6.2-14.6,6.7-22.5,8.3c-1.6,0.3-3,0-4.7,0.5
		c-3.8,1.1-5.9,4.6-9.2,6.2c-0.4,0.2-0.7,0.8-0.8,1.3c-0.7,3.2-2.9,5.7-4.4,8.6c-2.5,4.8-6.7,6-11.5,6.9c-4,0.7-7.2-1.5-10.7-2.3
		c-2.4-0.6-6.6-9.1-5.5-10.9c2.4-4,3.4-9.4,9-10.9C128.8,333.1,129.2,333,129.2,332.3z M88.9,331.7c7.7-8.8,17.3-12.3,29-11.4
		c-1.3-1.8-2.6-3.5-3.6-5.3c-1.7-3-4.6-4.3-7.7-4.7c-4-0.5-8.1-0.9-12.2-0.8c-2.3,0.1-3.1,1.1-2.9,3.2c0.3,2.2,0.2,4.3-0.3,6.5
		C90.2,323.3,89.7,327.5,88.9,331.7z"/>
</g>
</svg>
