<svg xmlns="http://www.w3.org/2000/svg" xmlns:xlink="http://www.w3.org/1999/xlink" version="1.1" x="0px" y="0px" width="100px" height="100px" viewBox="5.0 -10.0 100.0 135.0" enable-background="new 0 0 100 100" xml:space="preserve">
<g id="Captions">
</g>
<g id="Your_Icon">
	<path fill-rule="evenodd" clip-rule="evenodd" d="M60.707,85.141c-2.252-0.456-4.507-0.94-6.72,0.161   c-0.521,0.259-0.985,0.63-1.476,0.947c-0.153,0.099-0.309,0.275-0.462,0.275c-1.036-0.002-0.934,0.802-0.963,1.418   c-0.035,0.752-0.207,1.478-0.282,2.221c-0.114,1.135-1.033,1.78-1.761,2.522c-0.674,0.688-1.475,0.836-2.372,0.469   c-0.317-0.131-0.648,0.058-0.957,0.002c-1.034-0.187-2.037-0.442-2.633-1.447c-0.249-0.421-0.252-0.883-0.102-1.29   c0.325-0.874,0.751-1.685,1.645-2.167c1.244-0.673,1.911-1.779,2.299-3.125c0.438-1.519,0.155-3.005-0.034-4.502   c-0.056-0.439-0.321-0.704-0.796-0.625c-0.784,0.132-1.386-0.365-2.071-0.571c-0.16-0.048-0.233-0.199-0.293-0.362   c-0.364-1.005-0.122-1.586,0.696-2.293c0.691-0.598,1.375-1.037,2.321-0.903c0.201,0.028,0.292-0.096,0.322-0.279   c0.029-0.18,0.091-0.358,0.093-0.537c0.029-2.545,0.105-5.091-0.243-7.624c-0.058-0.414-0.334-0.63-0.625-0.848   c-1.115-0.834-2.18-1.722-3.053-2.82c-0.147-0.187-0.302-0.382-0.532-0.48c-0.037,0.025-0.095,0.047-0.095,0.068   c-0.023,1.771-0.351,3.531-0.197,5.312c0.064,0.749-0.144,1.485-0.183,2.231c-0.062,1.174,0.015,2.347,0.135,3.512   c0.137,1.326,0.074,2.62-0.378,3.887c-0.375,1.05-0.455,2.169-0.732,3.243c-0.184,0.707-0.431,1.391-0.694,2.067   c-0.478,1.229-1.651,1.458-2.719,1.792c-0.729,0.228-1.491,0.33-2.219,0.59c-0.491,0.176-1.037,0.168-1.532-0.099   c-0.055-0.029-0.112-0.093-0.158-0.085c-0.797,0.142-1.019-0.446-1.344-0.98c-0.312-0.514-0.315-0.98,0.061-1.39   c0.9-0.978,1.904-1.782,3.293-2.009c0.793-0.128,1.045-0.889,1.36-1.51c0.588-1.161,0.511-2.391,0.261-3.61   c-0.225-1.099-0.296-2.205-0.237-3.315c0.163-3.101-0.195-6.14-0.867-9.166c-0.331-1.489-0.52-3.016-0.756-4.527   c-0.209-1.336-0.242-2.671-0.123-3.98c0.102-1.109-0.229-2.122-0.288-3.184c-0.016-0.282-0.079-0.581-0.011-0.845   c0.259-1,0.171-2.013,0.106-3.012c-0.101-1.521,0.453-2.805,1.258-4.023c0.255-0.387,0.506-0.774,0.816-1.126   c0.628-0.711,0.415-1.599,0.311-2.385c-0.138-1.03-0.209-2.05-0.144-3.079c0.037-0.589-0.217-0.722-0.778-0.773   c-1.288-0.116-2.611-0.179-3.749-0.922c-0.375-0.246-0.843-0.144-1.229-0.45c-0.955-0.761-1.153-1.8-1.255-2.903   c-0.066-0.731,0.015-1.452,0.188-2.161c0.076-0.31,0.037-0.594-0.039-0.893c-0.293-1.14,0.098-2.068,1.115-2.688   c0.987-0.602,1.366-2.039,0.75-3.046c-0.595-0.971-0.476-3.515,0.577-4.205c0.862-0.566,1.066-1.262,0.73-2.332   c-0.706-2.246-0.849-4.593-0.788-6.945c0.015-0.6,0.212-1.147,0.476-1.673c0.179-0.357,0.418-0.385,0.721-0.115   s0.46,0.619,0.568,0.985c0.271,0.91,0.714,1.754,0.994,2.663c0.144,0.464,0.46,0.907,0.756,1.297   c0.609,0.805,1.007,1.697,1.365,2.621c0.132,0.339,0.343,0.574,0.724,0.503c1.085-0.206,2.178-0.114,3.267-0.113   c0.588,0.002,0.92-0.213,0.987-0.806c0.194-1.702,0.82-3.273,1.392-4.87c0.233-0.652,0.361-1.36,0.572-2.032   c0.123-0.391,0.283-0.779,0.788-0.798c0.528-0.02,0.731,0.347,0.878,0.771c0.817,2.372,1.262,4.826,1.647,7.297   c0.168,1.08,0.264,2.15,0.011,3.239c-0.138,0.589-0.476,1.068-0.727,1.592c-0.426,0.887-0.613,1.83-0.814,2.774   c-0.051,0.24,0.063,0.427,0.148,0.634c0.777,1.892,1.271,3.876,1.508,5.888c0.208,1.767,0.669,3.431,1.338,5.047   c0.486,1.174,1.307,2.11,2.338,2.866c1.691,1.239,2.887,2.855,3.527,4.855c0.245,0.764,0.668,1.433,1.05,2.113   c1.266,2.256,2.515,4.518,3.435,6.941c0.637,1.681,1.188,3.394,1.627,5.136c0.606,2.396,1.624,4.596,2.943,6.675   c0.941,1.484,2.075,2.838,2.929,4.38c0.134,0.241,0.314,0.4,0.562,0.522c2,0.977,2.927,2.632,2.994,4.809   c0.01,0.316,0.119,0.521,0.367,0.71c0.981,0.753,2.126,1.243,3.122,1.975c0.64,0.471,1.189,1.042,1.667,1.659   c1.105,1.424,0.726,2.91-0.117,4.283c-0.376,0.613-0.801,1.293-1.651,1.406c-1.455,1.424-3.383,1.552-5.225,1.931   c-0.363,0.074-0.708-0.011-1.1,0.106c-0.893,0.265-1.359,1.062-2.136,1.433c-0.091,0.043-0.163,0.188-0.188,0.299   c-0.172,0.748-0.669,1.322-1.013,1.979c-0.588,1.121-1.561,1.396-2.677,1.587c-0.925,0.157-1.67-0.342-2.488-0.543   c-0.554-0.136-1.524-2.103-1.27-2.524c0.563-0.934,0.801-2.173,2.088-2.516C60.612,85.307,60.698,85.287,60.707,85.141z    M51.359,84.993c1.795-2.044,4.029-2.849,6.74-2.646c-0.297-0.428-0.598-0.806-0.837-1.218c-0.406-0.699-1.069-1.002-1.797-1.099   c-0.938-0.124-1.886-0.201-2.84-0.177c-0.545,0.015-0.731,0.253-0.669,0.751c0.062,0.504,0.048,0.986-0.075,1.496   C51.652,83.052,51.527,84.028,51.359,84.993z"/>
</g>
<text x="0.0" y="117.5" font-size="5.0" font-weight="bold" font-family="Helvetica Neue, Helvetica, Arial-Unicode, Arial, Sans-serif" fill="#000000">Created by Qing Li</text><text x="0.0" y="122.5" font-size="5.0" font-weight="bold" font-family="Helvetica Neue, Helvetica, Arial-Unicode, Arial, Sans-serif" fill="#000000">from the Noun Project</text></svg>