<?xml version="1.0" encoding="utf-8"?>
<!-- Generator: Adobe Illustrator 18.1.1, SVG Export Plug-In . SVG Version: 6.00 Build 0)  -->
<svg version="1.1" id="Layer_1" xmlns="http://www.w3.org/2000/svg" xmlns:xlink="http://www.w3.org/1999/xlink" x="0px" y="0px"
	 viewBox="0 0 600 400" enable-background="new 0 0 600 400" xml:space="preserve">
<g>
	<polygon fill="#010101" points="0,174.4 347.2,179.1 393.5,97.8 450.4,65.5 494.3,118.3 518.7,205.9 526,205.9 499.2,109.7 
		453.7,58.4 113.8,61.5 52.8,93.9 	"/>
	<path fill="#010101" d="M518.7,377.1l81.3,15V67.9c0,0-1.6-67.9-65.9-67.9s-65,68.6-65,68.6l35,38.7L534.1,213h-15.4V377.1z"/>
	<g>
		<rect x="387.8" y="213" fill="#010101" width="10.6" height="30.8"/>
		<path fill="#010101" d="M180.5,277.7c-32.5,0-40.7,25.2-40.7,25.2v5.5l79.7,14.2V303C220.3,303.7,213.8,278.5,180.5,277.7z"/>
		<path fill="#010101" d="M487.8,120.7l-39-48.1L400,101.8L348.8,187l0,0L13,182.2v104.9l120.3,22.1l0.8-41l47.2,0.8l47.2,0.8
			l-0.8,57.6l114.6,21.3l170.7,30V205.9L487.8,120.7z M404.1,281.7h-22v-74.2h22V281.7L404.1,281.7z"/>
		<rect x="387.8" y="246.2" fill="#010101" width="10.6" height="30.8"/>
	</g>
	<polygon fill="#010101" points="0,292.7 600,400 0,400 	"/>
</g>
</svg>
