<?xml version="1.0" encoding="utf-8"?>
<!-- Generator: Adobe Illustrator 18.0.0, SVG Export Plug-In . SVG Version: 6.00 Build 0)  -->
<!DOCTYPE svg PUBLIC "-//W3C//DTD SVG 1.1//EN" "http://www.w3.org/Graphics/SVG/1.1/DTD/svg11.dtd">
<svg version="1.1" id="Layer_1" xmlns="http://www.w3.org/2000/svg" xmlns:xlink="http://www.w3.org/1999/xlink" x="0px" y="0px"
	 viewBox="0 0 100 68.5" enable-background="new 0 0 100 68.5" xml:space="preserve">
<g>
	<polygon points="14.3,20.4 57,21 62.7,10.7 69.7,6.6 75.1,13.3 78.1,24.4 79,24.4 75.7,12.2 70.1,5.7 28.3,6.1 20.8,10.2 	"/>
	<path d="M78.1,46.1L88.1,48V6.9c0,0-0.2-8.6-8.1-8.6c-7.9,0-8,8.7-8,8.7l4.3,4.9L80,25.3h-1.9L78.1,46.1z"/>
	<g>
		<rect x="62" y="25.3" width="1.3" height="3.9"/>
		<path d="M36.5,33.5c-4,0-5,3.2-5,3.2v0.7l9.8,1.8l0-2.5C41.4,36.8,40.6,33.6,36.5,33.5z"/>
		<path d="M74.3,13.6l-4.8-6.1l-6,3.7l-6.3,10.8v0l-41.3-0.6v13.3l14.8,2.8l0.1-5.2l5.8,0.1l5.8,0.1l-0.1,7.3l14.1,2.7l21,3.8V24.4
			L74.3,13.6z M64,34h-2.7v-9.4H64L64,34L64,34z"/>
		<rect x="62" y="29.5" width="1.3" height="3.9"/>
	</g>
	<polygon points="14.3,35.4 88.1,49 14.3,49 	"/>
</g>
</svg>
