<?xml version="1.0" encoding="utf-8"?>
<!-- Generator: Adobe Illustrator 18.0.0, SVG Export Plug-In . SVG Version: 6.00 Build 0)  -->
<!DOCTYPE svg PUBLIC "-//W3C//DTD SVG 1.1//EN" "http://www.w3.org/Graphics/SVG/1.1/DTD/svg11.dtd">
<svg version="1.1" id="Layer_1" xmlns="http://www.w3.org/2000/svg" xmlns:xlink="http://www.w3.org/1999/xlink" x="0px" y="0px"
	 viewBox="0 0 99.4 90" enable-background="new 0 0 99.4 90" xml:space="preserve">
<path d="M86.5,33.6L79.3,31l-8.1-2.6L65,30.5L52.7,10.3L23.8,20.8v-3.7h-1.5v-6.4H18V17H16v9.3h-0.7v7.6l2,0v20.6h20.4V44
	c0-1.3,1-2.3,2.2-2.3h3.2c1.2,0,2.2,1,2.2,2.3v10.5h16.1h3.5h21.6V33.6H86.5z M27,40.9h-3.2v-8.2H27V40.9z M31.5,41h-3.2v-8.2h3.2
	V41z M54.4,41h-3.2v-8.2h3.2V41z M58.9,41.1h-3.2v-8.2h3.2V41.1z M67.1,39.4H84V41H67.1V39.4z M67.1,42H84v1.6H67.1V42z M67.1,44.6
	H84v1.6H67.1V44.6z M84,51.3H67.1v-1.6H84V51.3z M84,48.8H67.1v-1.6H84V48.8z"/>
</svg>
