<?xml version="1.0" encoding="utf-8"?>
<!-- Generator: Adobe Illustrator 18.1.1, SVG Export Plug-In . SVG Version: 6.00 Build 0)  -->
<svg version="1.1" id="Layer_1" xmlns="http://www.w3.org/2000/svg" xmlns:xlink="http://www.w3.org/1999/xlink" x="0px" y="0px"
	 viewBox="0 0 600 400" enable-background="new 0 0 600 400" xml:space="preserve">
<path fill="#010101" d="M598.8,210.5l-60.6-23.6l-68.1-23.6l-52.1,19L314.5-0.8L71.4,94.4V60.8H58.8v-58H22.6v57.1H5.8v84.3h-5.9
	v68.9h16.8V400h171.6v-95.2c0-11.8,8.4-20.9,18.5-20.9h26.9c10.1,0,18.5,9.1,18.5,20.9V400h135.4h29.4h181.7V210.5L598.8,210.5z
	 M98.3,276.7H71.4v-74.4h26.9V276.7z M136.2,277.6h-26.9v-74.4h26.9V277.6z M328.8,277.6h-26.9v-74.4h26.9V277.6z M366.7,278.5
	h-26.9v-74.4h26.9V278.5z M435.6,263.1h142.1v14.5H435.6V263.1z M435.6,286.6h142.1v14.5H435.6V286.6z M435.6,310.2h142.1v14.5
	H435.6V310.2z M577.8,371H435.6v-14.5h142.1V371z M577.8,348.3H435.6v-14.5h142.1V348.3z"/>
</svg>
