<?xml version="1.0" encoding="utf-8"?>
<!-- Generator: Adobe Illustrator 18.0.0, SVG Export Plug-In . SVG Version: 6.00 Build 0)  -->
<!DOCTYPE svg PUBLIC "-//W3C//DTD SVG 1.1//EN" "http://www.w3.org/Graphics/SVG/1.1/DTD/svg11.dtd">
<svg version="1.1" id="Your_Icon" xmlns="http://www.w3.org/2000/svg" xmlns:xlink="http://www.w3.org/1999/xlink" x="0px" y="0px"
	 viewBox="0 0 100 100" enable-background="new 0 0 100 100" xml:space="preserve">
<circle cx="33.2" cy="34.3" r="3.1"/>
<path d="M22.2,48.1c-0.2,0.4-0.1,0.9,0.3,1.2l4.1,2.3c0.4,0.2,0.9,0.1,1.2-0.3l6.5-11.3c0.2-0.4,0.1-0.9-0.3-1.2l-4.1-2.3
	c-0.4-0.2-0.9-0.1-1.2,0.3L22.2,48.1z"/>
<path d="M34.3,45.8c0,0.7-0.4,1.3-1,1.3h-1c-0.5,0-1-0.6-1-1.3v-4.8c0-0.7,0.4-1.3,1-1.3h1c0.5,0,1,0.6,1,1.3V45.8z"/>
<path d="M33,47.4c-0.8,0-1.4-0.4-1.4-1l0-1.6c0-0.5,0.6-1,1.4-1l5.8,0c0.8,0,1.4,0.4,1.4,1l0,1.6c0,0.5-0.6,1-1.4,1L33,47.4z"/>
<path d="M19.5,61.3c-0.3,0.5-0.9,0.6-1.3,0.4l-1.3-0.8c-0.5-0.3-0.6-0.9-0.4-1.3L22.6,49c0.3-0.5,0.9-0.6,1.3-0.4l1.3,0.8
	c0.5,0.3,0.6,0.9,0.4,1.3L19.5,61.3z"/>
<path d="M32,55.4c0.3,0.3,0.8,0.2,1.2-0.2l1.1-1.1c0.4-0.4,0.5-0.9,0.2-1.2l-5.9-5.9c-0.3-0.3-0.8-0.2-1.2,0.2l-1.1,1.1
	c-0.4,0.4-0.5,0.9-0.2,1.2L32,55.4z"/>
<path d="M35.3,61c0,0.5-0.3,0.9-0.8,1l-1.6,0.1c-0.5,0-1-0.3-1-0.8l-0.7-7.5c0-0.5,0.3-0.9,0.8-1l1.6-0.1c0.5,0,1,0.3,1,0.8L35.3,61
	z"/>
<path d="M18.2,40.8c-0.3,0.5-0.1,1.1,0.4,1.3l3.7,2.1c0.5,0.3,1.1,0.1,1.3-0.4l4.8-8.4c0.3-0.5,0.1-1.1-0.4-1.3l-3.7-2.1
	c-0.5-0.3-1.1-0.1-1.3,0.4L18.2,40.8z"/>
<polygon points="32.9,63.4 46.5,31.5 58.6,29.9 61.5,11.5 64.5,16.7 65.2,1.7 77.2,29.9 78.8,21.7 86.1,64.1 "/>
</svg>
