<?xml version="1.0" encoding="utf-8"?>
<!-- Generator: Adobe Illustrator 18.1.1, SVG Export Plug-In . SVG Version: 6.00 Build 0)  -->
<svg version="1.1" id="Layer_1" xmlns="http://www.w3.org/2000/svg" xmlns:xlink="http://www.w3.org/1999/xlink" x="0px" y="0px"
	 viewBox="0 0 600 600" enable-background="new 0 0 600 600" xml:space="preserve">
<ellipse fill="#010101" cx="145.3" cy="313.5" rx="26.6" ry="29.7"/>
<path fill="#010101" d="M50.7,445.7c-1.7,3.8-0.9,8.6,2.6,11.5l35.2,22c3.4,1.9,7.7,1,10.3-2.9l55.9-108.2c1.7-3.8,0.9-8.6-2.6-11.5
	l-35.2-22c-3.4-1.9-7.7-1-10.3,2.9L50.7,445.7z"/>
<path fill="#010101" d="M154.7,423.7c0,6.7-3.4,12.5-8.6,12.5h-8.6c-4.3,0-8.6-5.7-8.6-12.5v-46c0-6.7,3.4-12.5,8.6-12.5h8.6
	c4.3,0,8.6,5.7,8.6,12.5V423.7z"/>
<path fill="#010101" d="M143.6,439c-6.9,0-12-3.8-12-9.6v-15.3c0-4.8,5.2-9.6,12-9.6h49.9c6.9,0,12,3.8,12,9.6v15.3
	c0,4.8-5.2,9.6-12,9.6H143.6z"/>
<path fill="#010101" d="M27.5,572.2c-2.6,4.8-7.7,5.7-11.2,3.8l-11.2-7.7c-4.3-2.9-5.2-8.6-3.4-12.5l52.4-101.5
	c2.6-4.8,7.7-5.7,11.2-3.8l11.2,7.7c4.3,2.9,5.2,8.6,3.4,12.5L27.5,572.2z"/>
<path fill="#010101" d="M135,515.6c2.6,2.9,6.9,1.9,10.3-1.9l9.5-10.5c3.4-3.8,4.3-8.6,1.7-11.5l-50.7-56.5
	c-2.6-2.9-6.9-1.9-10.3,1.9L86,447.6c-3.4,3.8-4.3,8.6-1.7,11.5L135,515.6z"/>
<path fill="#010101" d="M163.3,569.3c0,4.8-2.6,8.6-6.9,9.6l-13.8,1c-4.3,0-8.6-2.9-8.6-7.7l-6-71.8c0-4.8,2.6-8.6,6.9-9.6l13.8-1
	c4.3,0,8.6,2.9,8.6,7.7L163.3,569.3z"/>
<path fill="#010101" d="M16.3,375.8c-2.6,4.8-0.9,10.5,3.4,12.5l31.8,20.1c4.3,2.9,9.5,1,11.2-3.8l41.3-80.5
	c2.6-4.8,0.9-10.5-3.4-12.5l-31.8-20.1c-4.3-2.9-9.5-1-11.2,3.8L16.3,375.8z"/>
<polygon fill="#010101" points="142.7,592.3 259.6,286.7 363.6,271.4 388.5,95.1 414.3,144.9 420.3,1.2 523.5,271.4 537.3,192.8 
	600,599 "/>
</svg>
